mtllib materials.mtl
v 0.02725011 -0.02455735 -0.01092282
v 0.02082205 -0.03301001 0.00374949
v 0.0236522 -0.02599847 0.02020767
v 0.03291023 -0.01053417 0.02199343
v 0.03933835 -0.002081633 0.007321149
v 0.0365082 -0.009093165 -0.009137034
v 0.0193584 0.01829445 -0.02444342
v 0.02246374 0.0331912 0.008429319
v 0.01076734 0.01523054 0.03763178
v -0.004034221 -0.017627 0.0339615
v -0.007139564 -0.03252375 0.001088709
v 0.004556775 -0.01456296 -0.02811372
v -0.02030683 0.008385301 -0.0347088
v -0.03389698 0.02032948 -0.014442
v -0.03778636 0.007091165 0.008961409
v -0.02808571 -0.01809132 0.01209792
v -0.01449549 -0.0300355 -0.008168906
v -0.01060611 -0.01679707 -0.03157222
v -0.03208035 -0.02056599 -0.03763178
v -0.03825867 -0.01752007 -0.03175279
v -0.03933841 -0.02165663 -0.02376941
v -0.03423989 -0.02883911 -0.02166507
v -0.02806157 -0.03188491 -0.02754405
v -0.02698183 -0.02774835 -0.03552744
v -0.03753954 -0.01858258 -0.02731362
v -0.031443 -0.02173162 -0.03322348
v -0.03869236 -0.02273798 -0.01935023
v -0.03374851 -0.03004217 -0.0172967
v -0.02765197 -0.0331912 -0.02320662
v -0.02649915 -0.02903593 -0.03116998
v -0.03543782 -0.01735103 -0.02925959
v -0.02932072 -0.02051878 -0.03513801
v -0.03664857 -0.02150607 -0.02130476
v -0.0317421 -0.0288291 -0.01922834
v -0.02562505 -0.03199697 -0.02510679
v -0.02441424 -0.02784181 -0.03306162
vn 0.0005444777 -0.0003314647 4.758455E-05
vn 0.001255668 0.0005376081 -0.0004449567
vn 0.002571763 0.001255848 -0.0008120525
vn 0.001185525 0.0005410477 0.0008310848
vn 0.002324853 0.001043359 0.001572877
vn 0.000440608 -0.0004147245 0.001307148
vn 0.0009476783 -0.000686687 0.002325639
vn -9.302325E-05 -0.001112835 0.000490088
vn -0.0001251487 -0.002049559 0.0009406085
vn 3.455074E-05 -0.000961573 -0.0005388169
vn 3.802559E-05 -0.001943484 -0.001180094
vn 0.0006383042 -0.0002669186 -0.0009977912
vn 0.001357762 -0.0003681314 -0.002179985
vn -0.0003888457 0.002862054 -0.001260252
vn 2.815093E-05 0.00326942 -0.001907946
vn -0.001769356 0.004305111 0.001939147
vn -0.001282588 0.002807622 0.001375008
vn -0.002052365 0.0005538663 0.003318474
vn -0.001242074 -0.0003074696 0.001372897
vn -0.0006984746 -0.001626173 0.000802905
vn -0.0003622595 -0.0006185111 0.0001215991
vn 0.0002106214 -0.0007269552 -0.0003627484
vn 0.0002206575 -0.0008287066 -0.0004320962
vn 0.0002372362 1.003654E-05 -0.001046581
vn 0.0006515722 -5.587189E-05 -0.002463727
vn -0.001241633 0.0006262562 -0.001201675
vn -0.0003820289 0.0002983361 -0.0005560461
vn -0.002508694 0.0003811668 -0.0002013077
vn -0.0008210185 0.0001073938 -5.539378E-05
vn -0.002057419 -0.0007034474 0.0007154033
vn -0.0005965118 -0.0003581795 0.0002227493
vn -0.0004172567 -0.001313035 0.0004940347
vn -0.0001083167 -0.0004487853 0.00011868
vn 0.0006745014 -0.0008839083 -0.0003878977
vn 0.0002335248 -0.000303759 -0.0001258085
vn 0.0003013892 -2.924033E-05 -0.001166883
vn 0.0001843139 -2.221398E-05 -0.0005223848
vn 4.673363E-05 6.894476E-05 1.147368E-05
vn 4.447715E-05 7.122254E-05 9.841995E-06
vn -2.246597E-05 2.439966E-05 9.479609E-06
vn -2.170782E-05 2.234104E-05 8.640039E-06
vn -6.763179E-05 -4.617228E-05 -1.409841E-06
vn -6.489769E-05 -4.778584E-05 -5.861437E-06
vn -4.694949E-05 -6.64559E-05 -1.302265E-05
vn -4.700436E-05 -6.571398E-05 -1.535182E-05
vn 1.714714E-05 -1.858982E-05 -7.217978E-06
vn 1.742831E-05 -1.925622E-05 -7.62044E-06
vn 6.566376E-05 4.624026E-05 6.389168E-06
vn 6.57206E-05 4.755268E-05 3.071853E-06
vn -0.0001094284 -9.669626E-05 -6.490263E-05
vn -2.968701E-05 1.719379E-06 -3.18189E-05
vn -3.016499E-05 1.253504E-06 -3.178576E-05
vn -3.851642E-06 3.231641E-05 1.629354E-05
vn -3.799282E-06 3.155021E-05 1.591301E-05
vn 2.644877E-05 3.112539E-05 4.727481E-05
vn 2.614015E-05 3.075713E-05 4.646966E-05
vn 2.981444E-05 4.765081E-08 3.09987E-05
vn 2.934337E-05 -8.866515E-07 3.074257E-05
vn 3.609992E-06 -3.110123E-05 -1.569596E-05
vn 3.708808E-06 -3.244987E-05 -1.639555E-05
vn -2.558927E-05 -3.062301E-05 -4.753399E-05
vn -2.586133E-05 -3.110234E-05 -4.836938E-05
vn 0.000111658 9.346982E-05 6.581847E-05
usemtl mat17
f 6//1 5//1 4//1 3//1 2//1 1//1
f 6//2 7//2 5//2
f 7//3 8//3 5//3
f 5//4 8//4 4//4
f 8//5 9//5 4//5
f 4//6 9//6 3//6
f 9//7 10//7 3//7
f 3//8 10//8 2//8
f 10//9 11//9 2//9
f 2//10 11//10 1//10
f 11//11 12//11 1//11
f 1//12 12//12 6//12
f 12//13 7//13 6//13
f 7//14 13//14 8//14
f 13//15 14//15 8//15
f 8//16 14//16 9//16
f 14//17 15//17 9//17
f 9//18 15//18 10//18
f 15//19 16//19 10//19
f 10//20 16//20 11//20
f 16//21 17//21 11//21
f 11//22 17//22 12//22
f 17//23 18//23 12//23
f 12//24 18//24 7//24
f 18//25 13//25 7//25
f 13//26 19//26 14//26
f 19//27 20//27 14//27
f 14//28 20//28 15//28
f 20//29 21//29 15//29
f 15//30 21//30 16//30
f 21//31 22//31 16//31
f 16//32 22//32 17//32
f 22//33 23//33 17//33
f 17//34 23//34 18//34
f 23//35 24//35 18//35
f 18//36 24//36 13//36
f 24//37 19//37 13//37
f 26//38 19//38 25//38
f 19//39 20//39 25//39
f 25//40 20//40 27//40
f 20//41 21//41 27//41
f 27//42 21//42 28//42
f 21//43 22//43 28//43
f 28//44 22//44 29//44
f 22//45 23//45 29//45
f 29//46 23//46 30//46
f 23//47 24//47 30//47
f 30//48 24//48 26//48
f 24//49 19//49 26//49
f 24//50 23//50 22//50 21//50 20//50 19//50
f 32//51 26//51 31//51
f 26//52 25//52 31//52
f 31//53 25//53 33//53
f 25//54 27//54 33//54
f 33//55 27//55 34//55
f 27//56 28//56 34//56
f 34//57 28//57 35//57
f 28//58 29//58 35//58
f 35//59 29//59 36//59
f 29//60 30//60 36//60
f 36//61 30//61 32//61
f 30//62 26//62 32//62
f 32//63 31//63 33//63 34//63 35//63 36//63
